<?xml version="1.0" encoding="utf-8"?>
<!-- Generator: Adobe Illustrator 15.1.0, SVG Export Plug-In . SVG Version: 6.00 Build 0)  -->
<!DOCTYPE svg PUBLIC "-//W3C//DTD SVG 1.1//EN" "http://www.w3.org/Graphics/SVG/1.1/DTD/svg11.dtd">
<svg version="1.1" id="Layer_1" xmlns="http://www.w3.org/2000/svg" xmlns:xlink="http://www.w3.org/1999/xlink" x="0px" y="0px"
	 width="45px" height="180px" viewBox="0 0 45 180" enable-background="new 0 0 45 180" xml:space="preserve">
<g>
	<rect y="46" fill="#FFFFFF" width="44" height="44"/>
	<path fill="#CCCCCC" d="M44,46v43H1V46H44 M45,45H0v45h45V45L45,45z"/>
</g>
<g>
	<rect y="1" fill="#FFFFFF" width="44" height="44"/>
	<path fill="#CCCCCC" d="M44,1v43H1V1H44 M45,0H0v45h45V0L45,0z"/>
</g>
<g>
	<rect y="91" fill="#FFFFFF" width="44" height="44"/>
	<path fill="#CCCCCC" d="M44,91v43H1V91H44 M45,90H0v45h45V90L45,90z"/>
</g>
<g>
	<rect y="136" fill="#FFFFFF" width="44" height="44"/>
	<path fill="#CCCCCC" d="M44,136v43H1v-43H44 M45,135H0v45h45V135L45,135z"/>
</g>
<path fill="#789FA7" d="M34.204,20.643l-4.215-3.223v-5.399h-2.936v3.093l-4.452-3.361l-11.668,8.888l1.741,2.399l1.163-0.958
	v10.497h17.621V22.082l1.086,0.958L34.204,20.643z M29.989,31.111h-4.403v-5.874h-5.875v5.874h-4.405V21.015l7.342-5.253
	l7.341,5.253V31.111z"/>
<path fill="#789FA7" d="M34.204,65.977l-4.215-3.223v-5.399h-2.936v3.093l-4.452-3.361l-11.668,8.888l1.741,2.399l1.163-0.958
	v10.497h17.621V67.416l1.086,0.958L34.204,65.977z M29.989,76.444h-4.403v-5.874h-5.875v5.874h-4.405V66.349l7.342-5.253
	l7.341,5.253V76.444z"/>
<path fill="#6D6F71" d="M34.204,110.977l-4.215-3.224v-5.399h-2.936v3.094l-4.452-3.361l-11.668,8.889l1.741,2.398l1.163-0.958
	v10.497h17.621v-10.497l1.086,0.958L34.204,110.977z M29.989,121.443h-4.403v-5.873h-5.875v5.873h-4.405v-10.096l7.342-5.252
	l7.341,5.252V121.443z"/>
<path fill="#6D6F71" d="M34.204,155.978l-4.215-3.224v-5.399h-2.936v3.094l-4.452-3.361l-11.668,8.889l1.741,2.398l1.163-0.958
	v10.497h17.621v-10.497l1.086,0.958L34.204,155.978z M29.989,166.444h-4.403v-5.873h-5.875v5.873h-4.405v-10.096l7.342-5.252
	l7.341,5.252V166.444z"/>
</svg>
