<?xml version="1.0" encoding="utf-8"?>
<!-- Generator: Adobe Illustrator 15.1.0, SVG Export Plug-In . SVG Version: 6.00 Build 0)  -->
<!DOCTYPE svg PUBLIC "-//W3C//DTD SVG 1.1//EN" "http://www.w3.org/Graphics/SVG/1.1/DTD/svg11.dtd">
<svg version="1.1" id="Layer_1" xmlns="http://www.w3.org/2000/svg" xmlns:xlink="http://www.w3.org/1999/xlink" x="0px" y="0px"
	 width="45px" height="180px" viewBox="0 0 45 180" enable-background="new 0 0 45 180" xml:space="preserve">
<g>
	<rect y="136" fill="#FFFFFF" width="44" height="44"/>
	<path fill="#CCCCCC" d="M44,136v43H1v-43H44 M45,135H0v45h45V135L45,135z"/>
</g>
<g>
	<rect y="91" fill="#FFFFFF" width="44" height="44"/>
	<path fill="#CCCCCC" d="M44,91v43H1V91H44 M45,90H0v45h45V90L45,90z"/>
</g>
<g>
	<rect y="46" fill="#FFFFFF" width="44" height="44"/>
	<path fill="#CCCCCC" d="M44,46v43H1V46H44 M45,45H0v45h45V45L45,45z"/>
</g>
<g>
	<rect y="1" fill="#FFFFFF" width="44" height="44"/>
	<path fill="#CCCCCC" d="M44,1v43H1V1H44 M45,0H0v45h45V0L45,0z"/>
</g>
<polygon fill="#789FA7" points="30.034,12.5 30.034,32.5 14.034,22.5 "/>
<polygon fill="#789FA7" points="30.034,57.5 30.034,77.5 14.034,67.5 "/>
<polygon fill="#6D6F71" points="30.034,102.5 30.034,122.5 14.034,112.5 "/>
<polygon fill="#6D6F71" points="30.034,147.5 30.034,167.5 14.034,157.5 "/>
</svg>
