<?xml version="1.0" encoding="utf-8"?>
<!-- Generator: Adobe Illustrator 17.1.0, SVG Export Plug-In . SVG Version: 6.00 Build 0)  -->
<!DOCTYPE svg PUBLIC "-//W3C//DTD SVG 1.1//EN" "http://www.w3.org/Graphics/SVG/1.1/DTD/svg11.dtd">
<svg version="1.1" id="Layer_1" xmlns="http://www.w3.org/2000/svg" xmlns:xlink="http://www.w3.org/1999/xlink" x="0px" y="0px"
	 viewBox="0 0 789 211" enable-background="new 0 0 789 211" xml:space="preserve">
<path fill="#B35342" d="M218,99.8c0-54.9-44.6-99.5-99.5-99.5c-15.2,0-29.5,3.4-42.4,9.5C83.6,8.1,89,7.1,95.4,6.6
	c10.8-0.8,18.3,0.1,26,1c47.3,7,83.7,48,83.7,96.8c0,7.8-1,15.3-2.7,22.5c-3,20-11.9,38.2-24.7,52.8C202.1,161.5,218,132.5,218,99.8
	"/>
<path fill="#789FA7" d="M0,111.2c0,54.9,44.6,99.5,99.5,99.5c34.6,0,65.1-17.8,83-44.6c-17.6,20.8-43.8,34-73.1,34
	c-52.8,0-95.7-42.9-95.7-95.7c0-41.5,26.5-76.9,63.5-90.1C33,24.4,0,64,0,111.2"/>
<path fill="#6D6F71" d="M109.4,14.7c-49.4,0-89.7,40.2-89.7,89.7S59.9,194,109.4,194c49.4,0,89.7-40.2,89.7-89.7
	C199,54.9,158.8,14.7,109.4,14.7"/>
<path fill="#FFFFFF" d="M69.7,64.1v90.1h29.9c5.6,0,11.2-0.9,16.9-2.8c5.6-1.9,10.7-4.7,15.3-8.5c4.5-3.8,8.2-8.5,11-14.1
	c2.8-5.6,4.2-12.2,4.2-19.7c0-7.5-1.4-14-4.2-19.7c-2.8-5.6-6.5-10.4-11-14.1c-4.5-3.8-9.6-6.6-15.3-8.5c-5.6-1.9-11.3-2.8-16.9-2.8
	H69.7z M127.4,83.8c3.3,3.4,5.8,7.4,7.4,11.8c1.7,4.4,2.5,9,2.5,13.6c0,4.7-0.8,9.2-2.5,13.6c-1.7,4.4-4.1,8.3-7.4,11.8
	c-3.3,3.4-7.5,6.2-12.5,8.3c-5,2.1-11,3.2-17.8,3.2H78.9V72.3h18.2c6.8,0,12.7,1.1,17.8,3.2C119.9,77.6,124,80.4,127.4,83.8"/>
<path fill="#FFFFFF" d="M155.1,53.5c0.9-1,1.3-2.3,1.3-3.7c0-1.3-0.3-2.4-0.8-3.3c-0.5-0.9-1.2-1.6-2-2.1c-0.8-0.5-1.7-0.9-2.8-1.1
	c-1-0.2-2.1-0.3-3.1-0.3h-8v26.8h7.9c1.5,0,2.9-0.2,4.2-0.5c1.2-0.4,2.3-0.9,3.1-1.5c0.9-0.6,1.5-1.4,2-2.3c0.5-0.9,0.7-1.9,0.7-3
	c0-2-0.6-3.5-1.7-4.7c-1.1-1.1-2.6-1.8-4.3-2v-0.1C153.1,55.3,154.2,54.6,155.1,53.5 M153.2,58.3c1.2,0.9,1.8,2.2,1.8,4
	c0,0.9-0.2,1.7-0.6,2.4c-0.4,0.7-0.9,1.2-1.6,1.6s-1.5,0.7-2.3,0.9c-0.9,0.2-1.8,0.3-2.8,0.3h-5.1V57h5.6
	C150.3,57,152,57.4,153.2,58.3 M150,54.5c-0.7,0.2-1.3,0.2-2,0.2h-5.5v-9.4h4.7c0.9,0,1.7,0.1,2.5,0.2c0.8,0.2,1.5,0.4,2,0.8
	c0.6,0.4,1,0.9,1.4,1.5c0.3,0.6,0.5,1.3,0.5,2.2c0,0.9-0.2,1.6-0.5,2.2c-0.3,0.6-0.8,1.1-1.3,1.5C151.3,54.1,150.6,54.3,150,54.5"/>
<path fill="#6D6F71" d="M251.2,79.4h20.3c3.7,0,7.5,0.5,11.3,1.5c3.8,1,7.2,2.6,10.2,4.8c3,2.2,5.5,5.2,7.4,8.8
	c1.9,3.6,2.8,8.2,2.8,13.6c0,5-0.9,9.3-2.8,13c-1.9,3.6-4.4,6.6-7.4,8.9c-3,2.3-6.4,4-10.2,5.1c-3.8,1.1-7.5,1.7-11.3,1.7h-20.3
	V79.4z M269.9,127.9c2.6,0,5.3-0.3,7.9-0.9c2.6-0.6,5-1.7,7.2-3.2c2.1-1.5,3.9-3.5,5.2-6c1.3-2.5,2-5.8,2-9.6c0-4.1-0.7-7.5-2-10
	c-1.4-2.6-3.1-4.6-5.2-6.1c-2.1-1.5-4.5-2.5-7.2-3c-2.6-0.5-5.3-0.8-7.9-0.8h-8.5v39.7H269.9z"/>
<path fill="#6D6F71" d="M349.7,117.9v1.3c0,0.4,0,0.9-0.1,1.3H320c0.1,1.4,0.5,2.7,1.1,3.8c0.6,1.2,1.4,2.2,2.5,3
	c1,0.8,2.2,1.5,3.5,2c1.3,0.5,2.6,0.7,4.1,0.7c2.4,0,4.5-0.4,6.2-1.3c1.7-0.9,3.1-2.1,4.1-3.7l6.5,5.2c-3.8,5.2-9.4,7.8-16.7,7.8
	c-3,0-5.8-0.5-8.3-1.4c-2.5-0.9-4.7-2.3-6.6-4c-1.9-1.7-3.3-3.8-4.4-6.4c-1.1-2.5-1.6-5.4-1.6-8.5c0-3.1,0.5-6,1.6-8.5
	c1.1-2.6,2.5-4.8,4.3-6.6c1.8-1.8,4-3.2,6.5-4.2c2.5-1,5.2-1.5,8.1-1.5c2.7,0,5.2,0.4,7.5,1.3c2.3,0.9,4.3,2.2,6,4
	c1.7,1.8,3,3.9,3.9,6.6C349.2,111.3,349.7,114.3,349.7,117.9 M340,113.5c0-1.2-0.2-2.4-0.5-3.6c-0.4-1.1-0.9-2.1-1.7-3
	c-0.8-0.9-1.7-1.6-2.9-2.1c-1.2-0.5-2.5-0.8-4.1-0.8c-2.9,0-5.4,0.9-7.4,2.6c-2,1.8-3.2,4-3.4,6.8H340z"/>
<path fill="#6D6F71" d="M359.1,97.9h9.3v6.5h0.2c1.1-2.3,2.6-4.1,4.5-5.5c1.9-1.4,4.2-2.1,6.8-2.1c0.4,0,0.8,0,1.2,0
	c0.4,0,0.8,0.1,1.1,0.2v8.9c-0.6-0.2-1.2-0.3-1.7-0.3c-0.5-0.1-0.9-0.1-1.3-0.1c-2.2,0-4,0.4-5.4,1.2c-1.4,0.8-2.4,1.8-3.2,2.9
	c-0.8,1.1-1.3,2.3-1.5,3.5c-0.3,1.2-0.4,2.1-0.4,2.8v20.8h-9.7L359.1,97.9L359.1,97.9z"/>
<path fill="#6D6F71" d="M426,117.9v1.3c0,0.4,0,0.9-0.1,1.3h-29.6c0.1,1.4,0.5,2.7,1.1,3.8c0.6,1.2,1.4,2.2,2.5,3
	c1,0.8,2.2,1.5,3.5,2c1.3,0.5,2.6,0.7,4.1,0.7c2.4,0,4.5-0.4,6.2-1.3c1.7-0.9,3.1-2.1,4.1-3.7l6.5,5.2c-3.8,5.2-9.4,7.8-16.7,7.8
	c-3,0-5.8-0.5-8.3-1.4c-2.5-0.9-4.7-2.3-6.6-4s-3.3-3.8-4.4-6.4c-1.1-2.5-1.6-5.4-1.6-8.5c0-3.1,0.5-6,1.6-8.5
	c1.1-2.6,2.5-4.8,4.3-6.6c1.8-1.8,4-3.2,6.5-4.2c2.5-1,5.2-1.5,8.1-1.5c2.7,0,5.2,0.4,7.5,1.3c2.3,0.9,4.3,2.2,6,4
	c1.7,1.8,3,3.9,3.9,6.6C425.6,111.3,426,114.3,426,117.9 M416.3,113.5c0-1.2-0.2-2.4-0.5-3.6c-0.4-1.1-0.9-2.1-1.7-3
	c-0.8-0.9-1.7-1.6-2.9-2.1c-1.2-0.5-2.5-0.8-4.1-0.8c-2.9,0-5.4,0.9-7.4,2.6c-2,1.8-3.1,4-3.4,6.8H416.3z"/>
<polygon fill="#6D6F71" points="435.6,79.4 445.3,79.4 445.3,114.3 445.6,114.3 460.3,97.9 472.8,97.9 455.9,115.5 473.8,136.8 
	460.9,136.8 445.6,116.9 445.3,116.9 445.3,136.8 435.6,136.8 "/>
<path fill="#6D6F71" d="M500.2,79.4h22.4c2.2,0,4.3,0.3,6.4,0.8c2.1,0.5,4,1.4,5.6,2.5c1.6,1.2,3,2.7,4,4.5c1,1.8,1.5,4.1,1.5,6.6
	c0,3.2-0.9,5.9-2.8,8c-1.8,2.1-4.2,3.6-7.2,4.5v0.2c3.6,0.5,6.6,1.9,8.9,4.2c2.3,2.3,3.5,5.4,3.5,9.3c0,3.1-0.6,5.8-1.9,7.9
	c-1.2,2.1-2.9,3.8-4.9,5.1c-2,1.3-4.3,2.2-7,2.8c-2.6,0.6-5.3,0.8-8,0.8h-20.7L500.2,79.4L500.2,79.4z M510.4,102.8h9.1
	c3.4,0,6-0.7,7.8-2c1.8-1.3,2.7-3.3,2.7-5.8c0-2.6-0.9-4.4-2.8-5.5c-1.8-1.1-4.7-1.6-8.6-1.6h-8.2L510.4,102.8L510.4,102.8z
	 M510.4,128.2h9.2c1.3,0,2.7-0.1,4.2-0.3c1.5-0.2,2.9-0.6,4.2-1.2c1.3-0.6,2.3-1.5,3.2-2.6c0.8-1.1,1.3-2.6,1.3-4.5
	c0-3-1-5.1-3.1-6.3c-2.1-1.2-5.2-1.8-9.3-1.8h-9.6L510.4,128.2L510.4,128.2z"/>
<path fill="#6D6F71" d="M576.2,131.9H576c-1,1.7-2.5,3.1-4.7,4.3c-2.2,1.1-4.6,1.7-7.4,1.7c-1.6,0-3.2-0.2-4.9-0.6
	c-1.7-0.4-3.3-1.1-4.7-2c-1.4-0.9-2.6-2.2-3.6-3.7c-0.9-1.5-1.4-3.4-1.4-5.7c0-2.9,0.8-5.2,2.5-7c1.6-1.7,3.8-3.1,6.4-4
	c2.6-0.9,5.5-1.5,8.6-1.8c3.2-0.3,6.3-0.4,9.3-0.4v-1c0-2.4-0.9-4.2-2.6-5.4c-1.8-1.2-3.8-1.7-6.3-1.7c-2.1,0-4,0.4-5.9,1.3
	c-1.9,0.9-3.5,1.9-4.7,3.2l-5-5.9c2.2-2.1,4.8-3.6,7.7-4.6c2.9-1,5.8-1.5,8.8-1.5c3.5,0,6.3,0.5,8.6,1.5c2.2,1,4,2.2,5.3,3.8
	c1.3,1.6,2.2,3.3,2.7,5.3c0.5,1.9,0.8,3.9,0.8,5.8v23.7h-9.1L576.2,131.9L576.2,131.9z M576.1,119.1h-2.2c-1.6,0-3.2,0.1-4.9,0.2
	c-1.7,0.1-3.3,0.4-4.8,0.9c-1.5,0.5-2.7,1.1-3.6,1.9s-1.5,2-1.5,3.4c0,0.9,0.2,1.7,0.6,2.3c0.4,0.6,0.9,1.1,1.6,1.5
	c0.6,0.4,1.4,0.6,2.2,0.8c0.8,0.2,1.6,0.2,2.4,0.2c3.3,0,5.9-0.9,7.6-2.7c1.7-1.8,2.6-4.2,2.6-7.3L576.1,119.1L576.1,119.1z"/>
<path fill="#6D6F71" d="M636.2,136.8H627V131h-0.2c-1.3,2.3-3.2,4-5.6,5.2c-2.4,1.2-5,1.8-7.7,1.8c-3,0-5.6-0.6-8-1.7
	c-2.3-1.1-4.3-2.6-6-4.5c-1.6-1.9-2.9-4.1-3.8-6.6c-0.9-2.5-1.3-5.2-1.3-8.1c0-2.9,0.5-5.5,1.4-8c0.9-2.5,2.2-4.6,3.9-6.5
	c1.7-1.8,3.7-3.3,6-4.3c2.3-1.1,4.9-1.6,7.6-1.6c1.8,0,3.4,0.2,4.8,0.6c1.4,0.4,2.6,0.9,3.7,1.5c1.1,0.6,2,1.2,2.7,1.9
	c0.8,0.7,1.4,1.4,1.9,2h0.2V79.4h9.7L636.2,136.8L636.2,136.8z M604.2,117.2c0,1.5,0.2,3,0.7,4.5c0.5,1.5,1.1,2.9,2.1,4.1
	c0.9,1.2,2.1,2.2,3.5,2.9c1.4,0.8,3.1,1.1,4.9,1.1c1.8,0,3.4-0.4,4.8-1.1c1.4-0.7,2.6-1.7,3.6-2.9c1-1.2,1.8-2.5,2.3-4
	c0.5-1.5,0.8-3,0.8-4.5c0-1.5-0.3-3-0.8-4.5c-0.5-1.5-1.3-2.9-2.3-4.1c-1-1.2-2.2-2.2-3.6-2.9c-1.4-0.8-3-1.1-4.8-1.1
	c-1.9,0-3.5,0.4-4.9,1.1c-1.4,0.7-2.6,1.7-3.5,2.9c-0.9,1.2-1.6,2.5-2.1,4C604.4,114.2,604.2,115.7,604.2,117.2"/>
<path fill="#6D6F71" d="M669.9,108.3c-0.9-1.1-2.1-2.1-3.6-3c-1.5-0.8-3.2-1.3-4.9-1.3c-1.6,0-3,0.3-4.3,1c-1.3,0.6-1.9,1.7-1.9,3.2
	c0,1.5,0.7,2.6,2.1,3.2c1.4,0.6,3.5,1.3,6.3,1.9c1.5,0.3,2.9,0.8,4.4,1.3c1.5,0.5,2.8,1.3,4,2.1c1.2,0.9,2.2,2,3,3.3
	s1.1,2.9,1.1,4.8c0,2.4-0.4,4.4-1.3,6c-0.9,1.6-2.1,3-3.6,4c-1.5,1-3.2,1.8-5.2,2.2c-2,0.5-4,0.7-6.1,0.7c-3,0-6-0.6-8.8-1.7
	c-2.9-1.1-5.2-2.7-7.1-4.7l6.4-6c1.1,1.4,2.5,2.6,4.2,3.5c1.7,0.9,3.6,1.4,5.8,1.4c0.7,0,1.4-0.1,2.1-0.2c0.7-0.2,1.4-0.4,2-0.8
	c0.6-0.4,1.1-0.8,1.5-1.4c0.4-0.6,0.6-1.3,0.6-2.2c0-1.6-0.7-2.8-2.2-3.5c-1.5-0.7-3.7-1.4-6.7-2.1c-1.5-0.3-2.9-0.7-4.3-1.3
	c-1.4-0.5-2.6-1.2-3.7-2c-1.1-0.8-1.9-1.9-2.6-3.1c-0.6-1.2-1-2.8-1-4.6c0-2.2,0.4-4,1.3-5.6c0.9-1.6,2.1-2.8,3.5-3.8
	c1.5-1,3.1-1.7,4.9-2.2c1.8-0.5,3.7-0.7,5.7-0.7c2.8,0,5.6,0.5,8.2,1.5c2.7,1,4.8,2.5,6.4,4.5L669.9,108.3z"/>
<polygon fill="#6D6F71" points="684.7,79.4 694.4,79.4 694.5,114.3 694.7,114.3 709.4,97.9 721.9,97.9 705.1,115.5 723,136.8 
	710.1,136.8 694.7,116.9 694.5,116.9 694.5,136.8 684.7,136.8 "/>
<path fill="#6D6F71" d="M727.4,97.9h10.8l10.9,28.3h0.2l9.6-28.3H769l-18.4,47.2c-0.7,1.8-1.5,3.4-2.3,4.7c-0.8,1.4-1.8,2.5-2.9,3.5
	c-1.1,0.9-2.5,1.7-4,2.1c-1.5,0.5-3.4,0.7-5.5,0.7c-0.8,0-1.6,0-2.5-0.1c-0.8-0.1-1.7-0.2-2.6-0.4l0.8-8.4c0.6,0.2,1.3,0.4,1.9,0.4
	c0.6,0.1,1.2,0.1,1.7,0.1c1,0,1.9-0.1,2.6-0.4c0.7-0.2,1.3-0.6,1.8-1.1c0.5-0.5,0.9-1.1,1.3-1.9c0.4-0.8,0.8-1.6,1.2-2.7l1.9-4.9
	L727.4,97.9z"/>
<path display="none" fill="#FFFFFF" d="M157.4,102.7l-18.2-13.9V65.6h-12.7v13.3l-19.2-14.5L57,102.7l7.5,10.3l5-4.1v45.3h76v-45.3
	l4.7,4.1L157.4,102.7z M139.2,147.9h-19v-25.3H94.9v25.3h-19v-43.5l31.7-22.7l31.7,22.7V147.9z"/>
</svg>
