<?xml version="1.0" encoding="utf-8"?>
<!-- Generator: Adobe Illustrator 15.1.0, SVG Export Plug-In . SVG Version: 6.00 Build 0)  -->
<!DOCTYPE svg PUBLIC "-//W3C//DTD SVG 1.1//EN" "http://www.w3.org/Graphics/SVG/1.1/DTD/svg11.dtd">
<svg version="1.1" id="Layer_1" xmlns="http://www.w3.org/2000/svg" xmlns:xlink="http://www.w3.org/1999/xlink" x="0px" y="0px"
	 width="789px" height="211px" viewBox="0 0 789 211" enable-background="new 0 0 789 211" xml:space="preserve">
<g>
	<path fill="#B35342" d="M217.959,99.824c0-54.874-44.645-99.516-99.518-99.516c-15.17,0-29.55,3.426-42.433,9.523
		c7.564-1.754,12.945-2.759,19.437-3.227c10.764-0.776,18.326,0.097,25.987,0.97c47.318,6.98,83.662,47.964,83.662,96.792
		c0,7.755-0.951,15.288-2.699,22.513c-3.049,20.049-11.858,38.222-24.655,52.813C202.129,161.537,217.959,132.497,217.959,99.824"/>
	<path fill="#789FA7" d="M0.006,111.176c0,54.873,44.643,99.517,99.516,99.517c34.599,0,65.119-17.76,82.957-44.631
		c-17.575,20.796-43.825,34.036-73.119,34.036c-52.786,0-95.731-42.946-95.731-95.733c0-41.477,26.52-76.865,63.49-90.13
		C33.002,24.429,0.006,64.007,0.006,111.176"/>
	<path fill="#6D6F71" d="M109.359,14.687c-49.447,0-89.676,40.23-89.676,89.679c0,49.449,40.229,89.675,89.676,89.675
		c49.449,0,89.68-40.227,89.68-89.675C199.04,54.917,158.809,14.687,109.359,14.687"/>
	<path fill="#FFFFFF" d="M69.706,64.133v90.104h29.906c5.599,0,11.223-0.937,16.861-2.802c5.647-1.864,10.735-4.688,15.272-8.461
		c4.541-3.775,8.211-8.464,11.009-14.063c2.801-5.598,4.202-12.174,4.202-19.726c0-7.467-1.401-14.018-4.202-19.661
		c-2.798-5.642-6.468-10.353-11.009-14.127c-4.537-3.775-9.625-6.597-15.272-8.465c-5.638-1.864-11.262-2.799-16.861-2.799H69.706z
		 M127.355,83.795c3.311,3.436,5.789,7.362,7.443,11.771c1.657,4.415,2.485,8.954,2.485,13.619c0,4.667-0.828,9.208-2.485,13.617
		c-1.654,4.412-4.132,8.337-7.443,11.773c-3.309,3.436-7.49,6.214-12.537,8.331c-5.045,2.124-10.965,3.186-17.752,3.186H78.87
		V72.279h18.197c6.787,0,12.707,1.06,17.752,3.181C119.866,77.583,124.046,80.359,127.355,83.795"/>
	<path fill="#FFFFFF" d="M155.102,53.529c0.859-1.047,1.293-2.277,1.293-3.69c0-1.336-0.26-2.447-0.775-3.33
		c-0.518-0.882-1.188-1.582-2.008-2.1c-0.818-0.517-1.746-0.882-2.779-1.098c-1.036-0.214-2.055-0.321-3.065-0.321h-7.984v26.79
		h7.929c1.534,0,2.92-0.176,4.153-0.53c1.232-0.353,2.279-0.852,3.133-1.494c0.857-0.644,1.515-1.425,1.984-2.347
		c0.465-0.92,0.697-1.936,0.697-3.045c0-1.969-0.572-3.526-1.719-4.673c-1.142-1.148-2.584-1.822-4.32-2.026v-0.074
		C153.084,55.263,154.238,54.575,155.102,53.529 M153.161,58.259c1.197,0.869,1.797,2.188,1.797,3.954
		c0,0.932-0.206,1.734-0.606,2.402c-0.406,0.669-0.941,1.21-1.609,1.627s-1.451,0.719-2.346,0.908
		c-0.896,0.189-1.836,0.284-2.818,0.284h-5.071V56.952h5.561C150.264,56.952,151.959,57.388,153.161,58.259 M149.98,54.493
		c-0.67,0.151-1.332,0.227-1.986,0.227h-5.487v-9.383h4.731c0.881,0,1.713,0.081,2.496,0.245c0.783,0.164,1.463,0.434,2.043,0.813
		c0.58,0.378,1.041,0.865,1.383,1.458c0.34,0.593,0.509,1.318,0.509,2.175c0,0.883-0.169,1.628-0.509,2.232
		c-0.342,0.606-0.791,1.092-1.346,1.458C151.259,54.084,150.648,54.341,149.98,54.493"/>
	<path fill="#6D6F71" d="M271.18,42.448h20.338c3.727,0,7.481,0.487,11.264,1.459c3.779,0.972,7.181,2.58,10.207,4.821
		c3.025,2.242,5.48,5.186,7.375,8.832c1.888,3.646,2.834,8.171,2.834,13.572c0,5.022-0.946,9.345-2.834,12.963
		c-1.895,3.619-4.35,6.591-7.375,8.912c-3.026,2.323-6.428,4.039-10.207,5.145c-3.783,1.107-7.537,1.661-11.264,1.661H271.18V42.448
		z M289.896,90.901c2.646,0,5.295-0.31,7.941-0.933c2.647-0.619,5.038-1.673,7.172-3.159c2.131-1.486,3.873-3.497,5.225-6.036
		c1.349-2.539,2.025-5.752,2.025-9.641c0-4.105-0.676-7.455-2.025-10.047c-1.352-2.594-3.094-4.619-5.225-6.078
		c-2.134-1.458-4.525-2.457-7.172-2.997c-2.646-0.54-5.295-0.81-7.941-0.81h-8.506v39.701H289.896z"/>
	<path fill="#6D6F71" d="M369.706,80.854v1.297c0,0.433-0.028,0.864-0.082,1.296H340.05c0.108,1.406,0.471,2.688,1.092,3.849
		c0.621,1.162,1.445,2.162,2.471,2.998c1.027,0.837,2.189,1.498,3.486,1.984c1.297,0.486,2.647,0.729,4.051,0.729
		c2.43,0,4.482-0.445,6.158-1.335c1.674-0.892,3.051-2.12,4.131-3.688l6.482,5.185c-3.835,5.186-9.398,7.78-16.691,7.78
		c-3.025,0-5.807-0.474-8.346-1.419c-2.537-0.945-4.738-2.281-6.601-4.01c-1.865-1.729-3.322-3.848-4.375-6.362
		c-1.053-2.511-1.58-5.36-1.58-8.547c0-3.132,0.527-5.982,1.58-8.548c1.053-2.564,2.496-4.752,4.334-6.563
		c1.834-1.809,4.01-3.213,6.523-4.213c2.51-0.998,5.225-1.499,8.141-1.499c2.701,0,5.199,0.445,7.496,1.337
		c2.295,0.891,4.279,2.215,5.955,3.971c1.672,1.755,2.982,3.943,3.93,6.563C369.23,74.278,369.706,77.342,369.706,80.854
		 M359.982,76.479c0-1.241-0.176-2.431-0.527-3.565c-0.352-1.134-0.907-2.133-1.661-2.997c-0.757-0.864-1.716-1.552-2.876-2.066
		c-1.163-0.513-2.528-0.77-4.092-0.77c-2.916,0-5.389,0.878-7.412,2.632c-2.028,1.756-3.151,4.012-3.364,6.766H359.982z"/>
	<path fill="#6D6F71" d="M379.104,60.922h9.316v6.482h0.163c1.08-2.268,2.591-4.104,4.537-5.51c1.945-1.403,4.212-2.106,6.806-2.106
		c0.377,0,0.781,0.013,1.215,0.041c0.432,0.027,0.811,0.094,1.135,0.202v8.913c-0.648-0.162-1.203-0.27-1.662-0.325
		c-0.459-0.053-0.905-0.081-1.334-0.081c-2.217,0-4,0.406-5.35,1.216c-1.351,0.81-2.404,1.782-3.16,2.916
		c-0.758,1.135-1.27,2.297-1.539,3.484c-0.272,1.188-0.406,2.136-0.406,2.836v20.823h-9.721V60.922z"/>
	<path fill="#6D6F71" d="M446.027,80.854v1.297c0,0.433-0.027,0.864-0.08,1.296h-29.574c0.107,1.406,0.473,2.688,1.094,3.849
		c0.619,1.162,1.443,2.162,2.471,2.998c1.025,0.837,2.188,1.498,3.484,1.984c1.297,0.486,2.646,0.729,4.051,0.729
		c2.43,0,4.482-0.445,6.158-1.335c1.674-0.892,3.051-2.12,4.133-3.688l6.48,5.185c-3.836,5.186-9.398,7.78-16.691,7.78
		c-3.023,0-5.807-0.474-8.344-1.419c-2.539-0.945-4.74-2.281-6.604-4.01s-3.322-3.848-4.375-6.362
		c-1.053-2.511-1.58-5.36-1.58-8.547c0-3.132,0.527-5.982,1.58-8.548c1.053-2.564,2.496-4.752,4.334-6.563
		c1.836-1.809,4.012-3.213,6.521-4.213c2.514-0.998,5.227-1.499,8.145-1.499c2.699,0,5.197,0.445,7.494,1.337
		c2.297,0.891,4.279,2.215,5.955,3.971c1.674,1.755,2.984,3.943,3.93,6.563C445.553,74.278,446.027,77.342,446.027,80.854
		 M436.305,76.479c0-1.241-0.176-2.431-0.527-3.565c-0.352-1.134-0.906-2.133-1.662-2.997c-0.754-0.864-1.715-1.552-2.875-2.066
		c-1.162-0.513-2.525-0.77-4.092-0.77c-2.916,0-5.389,0.878-7.412,2.632c-2.025,1.756-3.148,4.012-3.363,6.766H436.305z"/>
	<polygon fill="#6D6F71" points="455.568,42.403 465.291,42.403 465.309,77.29 465.553,77.29 480.299,60.922 492.775,60.922 
		475.926,78.504 493.828,99.813 480.947,99.813 465.553,79.882 465.309,79.882 465.309,99.813 455.586,99.813 	"/>
	<path fill="#6D6F71" d="M520.162,42.449h22.361c2.16,0,4.295,0.257,6.402,0.77c2.107,0.514,3.982,1.351,5.631,2.512
		c1.646,1.161,2.984,2.661,4.012,4.496c1.023,1.837,1.539,4.052,1.539,6.644c0,3.241-0.92,5.915-2.756,8.022
		c-1.836,2.106-4.24,3.62-7.211,4.537v0.162c3.619,0.486,6.59,1.892,8.914,4.214c2.32,2.322,3.482,5.428,3.482,9.316
		c0,3.134-0.621,5.768-1.863,7.9c-1.244,2.135-2.877,3.849-4.902,5.145c-2.025,1.297-4.348,2.229-6.969,2.796
		c-2.617,0.567-5.279,0.85-7.979,0.85h-20.662V42.449z M530.371,65.784h9.074c3.402,0,5.996-0.674,7.779-2.026
		c1.781-1.349,2.674-3.267,2.674-5.753c0-2.592-0.92-4.428-2.756-5.509c-1.836-1.08-4.699-1.621-8.588-1.621h-8.184V65.784z
		 M530.371,91.225h9.156c1.297,0,2.701-0.094,4.213-0.283c1.512-0.19,2.902-0.58,4.174-1.175c1.268-0.594,2.32-1.459,3.16-2.593
		c0.836-1.134,1.254-2.646,1.254-4.537c0-3.024-1.027-5.131-3.078-6.321c-2.053-1.187-5.16-1.781-9.318-1.781h-9.561V91.225z"/>
	<path fill="#6D6F71" d="M596.242,94.871h-0.244c-0.973,1.729-2.537,3.147-4.697,4.254c-2.16,1.106-4.619,1.66-7.373,1.66
		c-1.568,0-3.201-0.203-4.902-0.607c-1.701-0.406-3.268-1.08-4.699-2.026c-1.432-0.943-2.621-2.186-3.566-3.726
		s-1.418-3.444-1.418-5.713c0-2.916,0.824-5.239,2.473-6.968c1.646-1.727,3.768-3.05,6.359-3.969
		c2.592-0.92,5.468-1.527,8.629-1.825c3.16-0.296,6.252-0.445,9.277-0.445v-0.972c0-2.43-0.879-4.225-2.633-5.388
		c-1.756-1.16-3.848-1.742-6.279-1.742c-2.055,0-4.026,0.434-5.914,1.296c-1.893,0.866-3.457,1.919-4.699,3.16l-5.025-5.914
		c2.215-2.052,4.768-3.592,7.658-4.619c2.889-1.025,5.818-1.539,8.789-1.539c3.459,0,6.307,0.486,8.551,1.458
		c2.238,0.973,4.008,2.242,5.307,3.808c1.295,1.568,2.199,3.323,2.713,5.267c0.512,1.945,0.77,3.889,0.77,5.833v23.659h-9.074
		V94.871z M596.08,82.07h-2.188c-1.565,0-3.214,0.067-4.942,0.202c-1.729,0.135-3.322,0.433-4.779,0.892
		c-1.459,0.459-2.674,1.107-3.646,1.944s-1.459,1.985-1.459,3.443c0,0.919,0.203,1.688,0.609,2.309
		c0.406,0.622,0.932,1.122,1.58,1.5c0.646,0.378,1.377,0.647,2.188,0.809c0.811,0.162,1.619,0.244,2.43,0.244
		c3.35,0,5.887-0.892,7.617-2.675c1.727-1.781,2.592-4.212,2.592-7.292V82.07z"/>
	<path fill="#6D6F71" d="M656.199,99.813h-9.238v-5.834h-0.16c-1.35,2.27-3.23,3.999-5.633,5.186
		c-2.404,1.187-4.982,1.783-7.738,1.783c-2.971,0-5.629-0.555-7.98-1.662c-2.35-1.105-4.348-2.592-5.996-4.456
		c-1.648-1.863-2.916-4.051-3.807-6.562c-0.893-2.513-1.336-5.199-1.336-8.062c0-2.864,0.457-5.536,1.375-8.022
		c0.918-2.484,2.215-4.645,3.891-6.482c1.674-1.835,3.672-3.281,5.996-4.334c2.322-1.054,4.861-1.58,7.615-1.58
		c1.783,0,3.375,0.203,4.781,0.607c1.402,0.406,2.633,0.906,3.686,1.499c1.053,0.595,1.959,1.243,2.717,1.945
		c0.754,0.702,1.375,1.378,1.861,2.026h0.242V42.387h9.725V99.813z M624.193,80.206c0,1.513,0.229,3.025,0.689,4.537
		c0.459,1.513,1.146,2.863,2.066,4.051c0.918,1.19,2.078,2.162,3.484,2.917c1.404,0.757,3.051,1.135,4.941,1.135
		c1.783,0,3.375-0.366,4.781-1.095c1.402-0.73,2.605-1.687,3.605-2.877c0.998-1.187,1.756-2.523,2.268-4.009
		c0.514-1.486,0.771-2.984,0.771-4.497c0-1.512-0.258-3.026-0.771-4.537c-0.512-1.512-1.27-2.863-2.268-4.051
		c-1-1.188-2.203-2.16-3.605-2.918c-1.406-0.755-2.998-1.134-4.781-1.134c-1.891,0-3.537,0.365-4.941,1.094
		c-1.406,0.73-2.566,1.689-3.484,2.876c-0.92,1.189-1.607,2.525-2.066,4.011C624.422,77.195,624.193,78.695,624.193,80.206"/>
	<path fill="#6D6F71" d="M689.902,71.292c-0.863-1.134-2.053-2.119-3.564-2.958c-1.514-0.836-3.16-1.254-4.941-1.254
		c-1.568,0-2.998,0.324-4.297,0.971c-1.295,0.648-1.943,1.73-1.943,3.241c0,1.514,0.715,2.581,2.146,3.201
		c1.432,0.621,3.525,1.255,6.281,1.904c1.457,0.324,2.928,0.758,4.414,1.297c1.484,0.54,2.836,1.255,4.05,2.146
		c1.218,0.892,2.204,1.999,2.959,3.323c0.755,1.324,1.136,2.93,1.136,4.82c0,2.378-0.447,4.39-1.338,6.036
		c-0.891,1.648-2.08,2.986-3.564,4.011c-1.486,1.028-3.215,1.771-5.186,2.228c-1.973,0.46-4.012,0.69-6.117,0.69
		c-3.027,0-5.969-0.556-8.832-1.662c-2.865-1.106-5.238-2.686-7.131-4.74l6.402-5.996c1.08,1.406,2.482,2.566,4.212,3.485
		s3.647,1.377,5.752,1.377c0.702,0,1.419-0.081,2.149-0.244c0.729-0.162,1.404-0.417,2.025-0.769
		c0.619-0.351,1.119-0.823,1.498-1.418c0.377-0.593,0.568-1.323,0.568-2.187c0-1.621-0.744-2.782-2.229-3.484
		c-1.486-0.701-3.715-1.405-6.686-2.106c-1.457-0.324-2.875-0.744-4.254-1.257c-1.375-0.513-2.605-1.187-3.686-2.025
		c-1.082-0.836-1.945-1.877-2.594-3.119c-0.648-1.242-0.973-2.782-0.973-4.619c0-2.159,0.447-4.023,1.338-5.591
		c0.891-1.566,2.064-2.848,3.523-3.848c1.459-0.999,3.107-1.743,4.942-2.228c1.839-0.486,3.728-0.73,5.673-0.73
		c2.809,0,5.551,0.486,8.223,1.459c2.676,0.972,4.793,2.459,6.361,4.456L689.902,71.292z"/>
	<polygon fill="#6D6F71" points="704.725,42.414 714.449,42.414 714.453,77.289 714.695,77.289 729.441,60.922 741.92,60.922 
		725.066,78.504 742.971,99.813 730.088,99.813 714.695,79.882 714.453,79.882 714.453,99.813 704.73,99.813 	"/>
	<path fill="#6D6F71" d="M747.43,60.922h10.775l10.855,28.277h0.164l9.641-28.277h10.129l-18.393,47.237
		c-0.703,1.783-1.459,3.362-2.27,4.738c-0.811,1.38-1.783,2.538-2.916,3.484c-1.135,0.945-2.471,1.661-4.012,2.148
		c-1.539,0.485-3.391,0.729-5.549,0.729c-0.809,0-1.635-0.041-2.473-0.122c-0.836-0.082-1.688-0.23-2.553-0.444l0.812-8.427
		c0.648,0.213,1.281,0.363,1.904,0.445c0.619,0.08,1.199,0.121,1.74,0.121c1.025,0,1.891-0.121,2.594-0.365
		c0.701-0.243,1.295-0.622,1.781-1.134c0.486-0.514,0.92-1.148,1.297-1.905c0.379-0.756,0.783-1.647,1.217-2.674l1.943-4.942
		L747.43,60.922z"/>
	<path fill="#6D6F71" d="M296.02,142.064c0,1.458-0.172,2.895-0.512,4.27c-0.336,1.362-0.89,2.594-1.646,3.652
		c-0.754,1.054-1.768,1.921-3.008,2.575c-1.24,0.653-2.791,0.984-4.609,0.984c-1.819,0-3.371-0.331-4.612-0.984
		c-1.24-0.654-2.252-1.521-3.004-2.575c-0.757-1.061-1.312-2.29-1.65-3.652c-0.338-1.372-0.51-2.81-0.51-4.27V119.33h-4.121v23.148
		c0,1.525,0.199,3.168,0.6,4.88c0.396,1.721,1.131,3.336,2.176,4.798c1.048,1.466,2.478,2.695,4.255,3.653
		c1.78,0.96,4.088,1.444,6.866,1.444c2.74,0,5.043-0.484,6.839-1.444c1.795-0.958,3.235-2.188,4.282-3.653
		c1.043-1.462,1.775-3.074,2.175-4.798c0.399-1.717,0.6-3.357,0.6-4.88V119.33h-4.121V142.064z"/>
	<polygon fill="#6D6F71" points="338.367,119.33 333.431,119.33 323.562,133.955 313.701,119.416 313.64,119.33 308.496,119.33 
		320.888,136.897 307.308,156.323 312.453,156.323 323.459,139.994 334.457,156.236 334.517,156.323 339.66,156.323 
		326.082,136.948 	"/>
	<path fill="#6D6F71" d="M385.846,123.95c-1.855-1.544-3.965-2.712-6.267-3.474c-2.305-0.764-4.629-1.146-6.912-1.146H360.32v36.993
		h12.346c2.285,0,4.609-0.384,6.912-1.145c2.302-0.764,4.412-1.931,6.267-3.474c1.856-1.546,3.377-3.488,4.522-5.778
		c1.146-2.291,1.726-5.016,1.726-8.101c0-3.048-0.58-5.766-1.724-8.074C389.225,127.447,387.702,125.496,385.846,123.95
		 M386.771,143.287c-0.66,1.757-1.662,3.344-2.98,4.711c-1.321,1.371-3.012,2.495-5.028,3.343c-2.013,0.844-4.414,1.273-7.131,1.273
		h-7.191v-29.576h7.191c2.715,0,5.114,0.43,7.131,1.274c2.018,0.85,3.709,1.974,5.028,3.341c1.316,1.371,2.32,2.955,2.98,4.712
		c0.658,1.762,0.994,3.601,0.994,5.461C387.766,139.688,387.43,141.524,386.771,143.287"/>
	<rect x="400.842" y="131.734" fill="#6D6F71" width="3.914" height="24.589"/>
	<path fill="#6D6F71" d="M404.639,120.698c-0.553-0.498-1.17-0.75-1.84-0.75c-0.666,0-1.285,0.252-1.84,0.75
		c-0.559,0.503-0.842,1.153-0.842,1.932c0,0.78,0.283,1.431,0.842,1.932c0.553,0.497,1.172,0.75,1.84,0.75
		c0.67,0,1.289-0.253,1.842-0.75c0.557-0.501,0.84-1.151,0.84-1.932C405.48,121.852,405.197,121.201,404.639,120.698"/>
	<path fill="#6D6F71" d="M428.43,131.166c-0.375-0.034-0.789-0.053-1.232-0.053c-1.756,0-3.357,0.455-4.762,1.351
		c-1.234,0.785-2.207,1.796-2.904,3.008c-0.006-0.395-0.021-0.848-0.045-1.375c-0.033-0.795-0.088-1.529-0.154-2.183l-0.02-0.18
		h-3.758l0.02,0.216c0.066,0.819,0.119,1.754,0.154,2.781c0.033,1.066,0.051,1.893,0.051,2.525v19.066h3.916v-12.576
		c0-1.584,0.195-2.959,0.584-4.085c0.385-1.12,0.895-2.055,1.512-2.77c0.611-0.711,1.344-1.238,2.172-1.567
		c1.266-0.507,2.646-0.598,4.031-0.401c0.471,0.068,0.807,0.135,1,0.197l0.227,0.077l0.523-3.773l-0.17-0.046
		C429.188,131.273,428.803,131.201,428.43,131.166"/>
	<path fill="#6D6F71" d="M455.93,134.72c-0.981-1.099-2.221-1.986-3.688-2.633c-1.466-0.646-3.181-0.974-5.095-0.974
		c-1.744,0-3.387,0.328-4.885,0.974c-1.502,0.646-2.828,1.556-3.941,2.705c-1.115,1.15-2,2.53-2.627,4.098
		c-0.629,1.567-0.945,3.296-0.945,5.139c0,1.847,0.325,3.575,0.971,5.143c0.645,1.567,1.537,2.943,2.652,4.095
		c1.117,1.151,2.469,2.063,4.021,2.707c1.551,0.646,3.254,0.972,5.064,0.972c2.018,0,3.932-0.404,5.691-1.207
		c1.762-0.801,3.395-2.144,4.854-3.984l0.125-0.159l-2.97-2.33l-0.116,0.19c-0.67,1.072-1.668,2.032-2.963,2.855
		c-1.287,0.821-2.842,1.236-4.621,1.236c-1.207,0-2.346-0.23-3.384-0.682c-1.041-0.454-1.96-1.072-2.729-1.843
		c-0.771-0.771-1.383-1.688-1.816-2.728c-0.411-0.979-0.646-2.033-0.701-3.135h20.027l0.018-0.177
		c0.035-0.327,0.053-0.623,0.053-0.901v-0.774c0-1.669-0.256-3.255-0.76-4.717C457.657,137.123,456.906,135.821,455.93,134.72
		 M438.887,141.969c0.086-0.928,0.336-1.831,0.738-2.687c0.436-0.921,1.031-1.754,1.77-2.476c0.734-0.718,1.602-1.297,2.576-1.717
		c0.967-0.417,2.037-0.629,3.176-0.629c2.443,0,4.352,0.735,5.666,2.182c1.281,1.411,1.998,3.203,2.133,5.326H438.887z"/>
	<path fill="#6D6F71" d="M485.389,150.474c-0.668,0.902-1.535,1.649-2.57,2.218c-1.033,0.566-2.322,0.854-3.834,0.854
		c-1.377,0-2.637-0.247-3.742-0.732s-2.057-1.163-2.828-2.019c-0.77-0.854-1.375-1.867-1.793-3.01
		c-0.422-1.143-0.637-2.404-0.637-3.757c0-1.349,0.215-2.621,0.637-3.782c0.418-1.157,1.031-2.18,1.818-3.035
		c0.787-0.852,1.746-1.533,2.854-2.019c1.107-0.487,2.365-0.731,3.744-0.731c1.268,0,2.463,0.295,3.551,0.881
		c1.082,0.583,1.918,1.335,2.482,2.229l0.113,0.18l3.08-2.207l-0.123-0.163c-1.051-1.399-2.443-2.476-4.141-3.191
		c-1.691-0.714-3.377-1.076-5.016-1.076c-1.979,0-3.797,0.326-5.396,0.971c-1.605,0.646-2.994,1.556-4.125,2.708
		c-1.135,1.15-2.027,2.53-2.654,4.098c-0.629,1.567-0.943,3.296-0.943,5.139c0,1.844,0.314,3.571,0.943,5.143
		c0.627,1.567,1.521,2.944,2.654,4.097c1.133,1.149,2.521,2.061,4.125,2.708c1.602,0.644,3.418,0.969,5.396,0.969
		c2.125,0,3.973-0.388,5.492-1.159c1.518-0.766,2.818-1.81,3.865-3.102l0.131-0.162l-2.963-2.208L485.389,150.474z"/>
	<path fill="#6D6F71" d="M508.049,152.483c-0.473,0.232-0.971,0.419-1.484,0.552c-1.066,0.277-2.047,0.249-2.871,0.026
		c-0.412-0.111-0.773-0.319-1.072-0.62c-0.303-0.302-0.539-0.734-0.699-1.284c-0.168-0.564-0.25-1.293-0.25-2.167v-13.909h6.822
		v-3.347h-6.822v-6.824h-3.916v6.824h-5.016v3.347h5.016v14.893c0,1.369,0.207,2.492,0.613,3.342
		c0.406,0.853,0.939,1.536,1.582,2.035c0.641,0.5,1.344,0.844,2.094,1.021c0.734,0.174,1.445,0.264,2.111,0.264
		c0.803,0,1.553-0.062,2.232-0.184c0.688-0.123,1.352-0.311,1.977-0.553l0.135-0.054l-0.176-3.499L508.049,152.483z"/>
	<path fill="#6D6F71" d="M535.881,134.79c-1.15-1.15-2.547-2.061-4.152-2.706c-1.6-0.645-3.383-0.971-5.293-0.971
		c-1.879,0-3.645,0.326-5.244,0.971c-1.604,0.646-3,1.556-4.15,2.706c-1.15,1.152-2.062,2.53-2.707,4.098
		c-0.643,1.567-0.971,3.298-0.971,5.141c0,1.847,0.328,3.575,0.971,5.143c0.645,1.567,1.557,2.946,2.707,4.097
		c1.15,1.151,2.549,2.062,4.15,2.708c1.604,0.644,3.365,0.969,5.244,0.969c1.91,0,3.693-0.325,5.293-0.969
		c1.604-0.646,3-1.557,4.152-2.708c1.148-1.15,2.061-2.527,2.703-4.097c0.648-1.567,0.973-3.299,0.973-5.143
		c0-1.843-0.324-3.573-0.973-5.141C537.941,137.317,537.029,135.939,535.881,134.79 M534.801,147.759
		c-0.42,1.159-1.023,2.183-1.795,3.036c-0.77,0.855-1.723,1.534-2.826,2.019c-1.107,0.485-2.367,0.732-3.744,0.732
		c-1.379,0-2.631-0.247-3.719-0.732c-1.088-0.484-2.031-1.163-2.801-2.019c-0.77-0.854-1.377-1.877-1.795-3.036
		c-0.422-1.16-0.635-2.414-0.635-3.73c0-1.314,0.213-2.57,0.635-3.729c0.418-1.159,1.025-2.182,1.795-3.037
		c0.77-0.854,1.713-1.543,2.805-2.045c1.088-0.501,2.336-0.756,3.715-0.756c1.377,0,2.635,0.255,3.74,0.756
		c1.107,0.504,2.059,1.191,2.83,2.045c0.771,0.855,1.375,1.878,1.795,3.037c0.42,1.161,0.633,2.417,0.633,3.729
		S535.221,146.597,534.801,147.759"/>
	<path fill="#6D6F71" d="M562.049,131.379c-0.387-0.105-0.771-0.178-1.146-0.213c-0.373-0.034-0.789-0.053-1.232-0.053
		c-1.756,0-3.355,0.455-4.758,1.351c-1.234,0.785-2.209,1.796-2.904,3.008c-0.01-0.395-0.023-0.848-0.045-1.375
		c-0.035-0.795-0.088-1.529-0.156-2.183l-0.02-0.18h-3.758l0.018,0.216c0.068,0.819,0.119,1.754,0.154,2.781
		c0.034,1.066,0.053,1.893,0.053,2.525v19.066h3.914v-12.576c0-1.584,0.197-2.959,0.584-4.085c0.387-1.12,0.895-2.055,1.514-2.77
		c0.613-0.711,1.344-1.238,2.17-1.567c1.268-0.507,2.646-0.598,4.033-0.401c0.471,0.068,0.807,0.135,0.998,0.197l0.229,0.077
		l0.523-3.773L562.049,131.379z"/>
	<path display="none" fill="#FFFFFF" d="M157.409,102.741l-18.177-13.904V65.552h-12.665v13.343L107.36,64.397l-50.325,38.336
		l7.509,10.347l5.016-4.133v45.277h76.006v-45.277l4.682,4.133L157.409,102.741z M139.232,147.892h-18.998v-25.335H94.896v25.335
		h-19v-43.545l31.669-22.659l31.667,22.659V147.892z"/>
</g>
</svg>
